<svg id="Layer_1" data-name="Layer 1" xmlns="http://www.w3.org/2000/svg" xmlns:xlink="http://www.w3.org/1999/xlink" viewBox="0 0 86.15358 25"><defs><clipPath id="clip-path"><path d="M117.61878-246.94159l1.4463,2.5034,1.4449,2.5039a1.69852,1.69852,0,0,1-1.4711,2.5479h-5.782a1.6985,1.6985,0,0,1-1.4711-2.54781l1.4452-2.50439,1.446-2.503A1.6983,1.6983,0,0,1,117.61878-246.94159Zm-2.6557,3.50311-1.1843,2.0521h4.7383l-1.18411-2.0517-1.1851-2.0514Z" style="fill:none"/></clipPath><clipPath id="clip-path-2"><path d="M228.41678-236.56368a1.575,1.575,0,0,1-1.189,1.883,1.575,1.575,0,0,1-1.883-1.189,1.5735,1.5735,0,0,1,1.189-1.882A1.57434,1.57434,0,0,1,228.41678-236.56368Zm-2-7a1.575,1.575,0,0,1-1.189,1.883,1.575,1.575,0,0,1-1.883-1.189,1.5735,1.5735,0,0,1,1.189-1.882A1.57434,1.57434,0,0,1,226.41678-243.56368Zm3.88541,4.16129-8.685,1.949a.99787.99787,0,0,1-1.194-.756l-.093-.412a1.00028,1.00028,0,0,1,.757-1.195l8.684-1.95a1.00031,1.00031,0,0,1,1.195.757l.093.412A1.001,1.001,0,0,1,230.30218-239.40239Z" style="fill:none;clip-rule:evenodd"/></clipPath><clipPath id="clip-path-3"><path d="M119.34635-221.93194l-2.1669-2.17089a1.0729,1.0729,0,0,0-.762-.31669,1.074,1.074,0,0,0-.7625.31669,1.0814,1.0814,0,0,0,0,1.52752l2.1652,2.16951-2.1652,2.165a1.0784,1.0784,0,0,0,0,1.525,1.07778,1.07778,0,0,0,1.5245,0l2.1639-2.16388,2.1589,2.16326a1.07689,1.07689,0,0,0,1.525,0,1.082,1.082,0,0,0,0-1.528l-2.1576-2.16157,2.1572-2.15729a1.0769,1.0769,0,0,0,0-1.52454,1.074,1.074,0,0,0-.762-.31607,1.07614,1.07614,0,0,0-.7625.31607Z" style="fill:none;clip-rule:evenodd"/></clipPath></defs><title></title><path d="M23.37956,6.61915c.48519,0,.726.1024.726.31252a9.8012,9.8012,0,0,1-.08047,1.06889L23.932,9.07049l.01354,1.00647.02662,1.01579c0,.34351-.1874.51211-.5616.51211l-.7216-.03506-.70869-.031a2.30062,2.30062,0,0,0-1.46622.33823,1.803,1.803,0,0,0-.39194,1.37224l.0182,1.70689.01789,1.70688.04872,1.13129.049,1.11868c0,.20905-.14227.32516-.43269.35177-.4139.03549-1.05595.05324-1.91518.05324a19.37939,19.37939,0,0,1-1.97895-.07984c-.28921-.03565-.43224-.17837-.43224-.43271l.01368-3.12274.01294-3.12842a18.88871,18.88871,0,0,0-.5613-5.048l-.02646-.19628a.25766.25766,0,0,1,.19582-.2626c.48156-.05368,1.18573-.14756,2.10783-.28982l2.134-.40578c.15611,0,.25853.27223.29884.81621.04287.52685.11868.79892.22366.81832-.07791-.01773.27853-.24485,1.0767-.68506a5.02687,5.02687,0,0,1,2.407-.68219ZM14.99318,12.9598a6.6955,6.6955,0,0,1-1.6443,4.63829,5.67768,5.67768,0,0,1-4.45136,1.9072A5.46817,5.46817,0,0,1,6.74109,19.011a5.03844,5.03844,0,0,1-1.04286-.49453c-.111,0-.1692.1286-.1692.392,0,.44081.02227,1.10469.06739,1.99608.0442.88674.06617,2.61242.06617,3.05852,0,.27567-.142.41433-.4324.41433l-2.664.01294a6.10205,6.10205,0,0,1-1.163-.06648.44836.44836,0,0,1-.39209-.4814L1.03768,12.737a24.601,24.601,0,0,0-.4539-5.12829L.55716,7.39009a.258.258,0,0,1,.15521-.26291,11.08415,11.08415,0,0,1,1.94271-.4187,14.64893,14.64893,0,0,1,2.01879-.223c.3387,0,.53482.223.5837.66882.05369.45029.1155.67228.19145.67228-.085,0,.28485-.23583,1.11386-.71215a4.67518,4.67518,0,0,1,2.26289-.70883,5.811,5.811,0,0,1,4.5231,1.86706,6.69092,6.69092,0,0,1,1.6443,4.68717ZM51.85049,1.57539c-.09747.96646-.169,2.20121-.22228,3.70732q-.10084,2.55351-.10259,5.81906a68.54235,68.54235,0,0,0,.294,7.66838l.02662.31194c0,.09822-.06678.15115-.196.16948q-.46815.06611-3.43512.06648c-.468,0-.73574-.09325-.80687-.276l-.08-.989a.41749.41749,0,0,0-.10275-.20951.75169.75169,0,0,0-.19566.1603,4.80824,4.80824,0,0,1-3.52473,1.39421,5.522,5.522,0,0,1-4.41076-1.93353A6.89579,6.89579,0,0,1,37.51658,12.813a7.00126,7.00126,0,0,1,1.55513-4.68763A5.50505,5.50505,0,0,1,43.514,6.16492,3.85019,3.85019,0,0,1,46.58441,7.426c.1244.14244.20936.21359.26274.21359.07986,0,.11566-.11537.11566-.33826L46.91364,4.294l-.0534-2.99008c0-.25369.07175-.39642.20936-.43222L49.36018.71541A17.89205,17.89205,0,0,0,51.66773.39024c.47346,0,.20967.87938.18276,1.18514ZM37.20962,12.81752a6.60777,6.60777,0,0,1-1.82223,4.83442,6.4075,6.4075,0,0,1-4.78133,1.85335,6.43912,6.43912,0,0,1-4.723-1.8311,6.31661,6.31661,0,0,1-1.85352-4.70069,6.8934,6.8934,0,0,1,1.77335-4.91925,6.27233,6.27233,0,0,1,4.80314-1.88932,6.41325,6.41325,0,0,1,4.77666,1.84946,6.54871,6.54871,0,0,1,1.82689,4.80314ZM57.482,3.5453q0,2.272-2.56174,2.2719a2.80213,2.80213,0,0,1-1.81306-.57468A2.064,2.064,0,0,1,52.322,3.5453a2.056,2.056,0,0,1,.8111-1.67124,2.75073,2.75073,0,0,1,1.78719-.60115,2.675,2.675,0,0,1,1.764.61484A2.05057,2.05057,0,0,1,57.482,3.5453Zm5.90211,2.72626A3.54983,3.54983,0,0,1,66.405,7.671c.13807.19189.23161.28532.28515.28532.07594,0,.1158-.15643.1158-.46354,0-.69124.07612-1.03356.23161-1.03356.13838,0,.89126.071,2.25434.21372q2.04527.21368,2.12168.24079a.32436.32436,0,0,1,.2226.33812L71.58264,9.9437l-.05384,2.69095.01383,1.60428.01281,1.60793q0,3.72348-1.56777,5.34275-1.61732,1.65793-5.37855,1.65739a17.2123,17.2123,0,0,1-2.98935-.35148c-1.60851-.29945-2.41538-.64626-2.41538-1.04753q0-.247.56594-2.56642c.06244-.24469.15581-.36516.28966-.36516l.14259.05324a8.48136,8.48136,0,0,0,3.71574.98964,4.11562,4.11562,0,0,0,1.8675-.46851c.74388-.374,1.11853-.84644,1.11853-1.41225v-.87321a4.78223,4.78223,0,0,1-3.42217,1.25644,5.16779,5.16779,0,0,1-4.03205-1.76416,6.00143,6.00143,0,0,1-1.52894-4.1754A5.99889,5.99889,0,0,1,59.3871,7.98266a5.09712,5.09712,0,0,1,3.997-1.7111ZM57.13459,13.2451l.03985,2.8427.04075,2.82524c0,.18242-.10722.294-.32591.32516a14.85985,14.85985,0,0,1-1.99608.07984,14.94669,14.94669,0,0,1-2.00511-.07984c-.19147-.03115-.30742-.08889-.35178-.17a1.44992,1.44992,0,0,1-.02664-.39165l.04-2.70926.04045-2.72223a46.52331,46.52331,0,0,0-.29463-5.89937L52.269,7.06927c0-.17371.11611-.25807.35191-.25807.245,0,.61485.02707,1.11837.07594.4995.05279.87787.07942,1.13145.07942q.375,0,1.13641-.06665c.504-.04.8821-.06164,1.13644-.06164.20918,0,.31208.08376.31208.25823l-.02678.24922a51.9118,51.9118,0,0,0-.29433,5.89937ZM85.52234,9.93468a16.96868,16.96868,0,0,1-.15567,3.08753,38.268,38.268,0,0,1-2.861,4.71845q-.42049.642-2.15628,2.95939a21.65556,21.65556,0,0,1-2.1788,2.7,18.95088,18.95088,0,0,1-4.04573.19552,1.57253,1.57253,0,0,1-.76658-.12887l-.41841-1.27059-.40983-.9257a3.03966,3.03966,0,0,1-.29433-.90073c0-.165.07565-.24937.22259-.24937q3.65649,0,3.65363-1.63076a24.15373,24.15373,0,0,0-1.787-2.60206,15.7182,15.7182,0,0,1-2.03578-3.19477,17.29656,17.29656,0,0,1-.1074-2.70492l.02662-1.42111.02738-1.42141c0-.22741.14228-.33839.42758-.33839l2.01369.03969,2.014.04061c.18258,0,.27659.13326.27659.40549l-.04016,1.10482-.04,1.10483c0,1.09657.01775,1.84433.05355,2.23688a5.29771,5.29771,0,0,0,.78825,1.70642c.53028.86916.9138,1.30125,1.14993,1.30125q.30007,0,1.02935-1.28741a6.15013,6.15013,0,0,0,.7219-1.64012,21.845,21.845,0,0,0,.13342-2.49963c0-.23627-.0221-.59239-.06708-1.07382-.03972-.48145-.06195-.84223-.06195-1.08725,0-.16482.08871-.24485.27146-.24485l1.98706-.05384,1.992-.05308a.45038.45038,0,0,1,.4548.33839,12.76467,12.76467,0,0,1,.18229,2.78944ZM67.03758,11.88581a2.35452,2.35452,0,0,0-.63257-1.64416,2.13913,2.13913,0,0,0-3.17235.009,2.41847,2.41847,0,0,0-.6332,1.66173,2.31545,2.31545,0,0,0,.646,1.64462,2.08145,2.08145,0,0,0,1.57287.69061,2.0487,2.0487,0,0,0,1.58672-.70386,2.38846,2.38846,0,0,0,.63257-1.658Zm-20.00393.48579a2.60074,2.60074,0,0,0-.7168-1.81337,2.27494,2.27494,0,0,0-1.733-.7756,2.08572,2.08572,0,0,0-1.70252.7756,2.85751,2.85751,0,0,0-.63258,1.86224,2.63083,2.63083,0,0,0,.63755,1.79109,2.11015,2.11015,0,0,0,1.69755.78419,2.2534,2.2534,0,0,0,1.74643-.78419,2.66674,2.66674,0,0,0,.7034-1.84Zm-14.10152.10272a2.8193,2.8193,0,0,0-.6416-1.82223A2.03311,2.03311,0,0,0,30.633,9.86294a2.09586,2.09586,0,0,0-1.69725.81064,2.72812,2.72812,0,0,0-.62853,1.80074,2.74782,2.74782,0,0,0,.62853,1.81785,2.16813,2.16813,0,0,0,3.38141,0,2.78834,2.78834,0,0,0,.615-1.81785Zm-22.77775.12A2.81742,2.81742,0,0,0,9.517,10.76744a2.16277,2.16277,0,0,0-1.7156-.82418,1.99991,1.99991,0,0,0-1.67047.82418,2.98872,2.98872,0,0,0-.54821,1.82689,2.8864,2.8864,0,0,0,.57468,1.84478,2.0285,2.0285,0,0,0,1.69755.79741q2.29906,0,2.29944-2.6422Z" style="fill:#fff;fill-rule:evenodd"/></svg>
